<svg xmlns="http://www.w3.org/2000/svg" xmlns:xlink="http://www.w3.org/1999/xlink" width="200" zoomAndPan="magnify" viewBox="0 0 150 74.999997" height="100" preserveAspectRatio="xMidYMid meet" version="1.0"><defs><g/><clipPath id="e0a2b6d85c"><path d="M 23 6 L 67 6 L 67 62.25 L 23 62.25 Z M 23 6 " clip-rule="nonzero"/></clipPath><clipPath id="c88c87a109"><path d="M 10 22 L 42 22 L 42 62.25 L 10 62.25 Z M 10 22 " clip-rule="nonzero"/></clipPath><clipPath id="32d073a792"><path d="M 2 35 L 42 35 L 42 62.25 L 2 62.25 Z M 2 35 " clip-rule="nonzero"/></clipPath></defs><g clip-path="url(#e0a2b6d85c)"><path fill="#006838" d="M 60.78125 6 L 23.351562 13.160156 C 23.351562 13.160156 42.980469 43.996094 41.90625 62.25 C 43.136719 40.140625 32.792969 17.054688 32.792969 17.054688 C 32.792969 17.054688 54.015625 12.527344 58.707031 11.945312 C 58.707031 11.945312 64.25 17.382812 65.710938 31.292969 C 67.875 19.023438 60.78125 6 60.78125 6 Z M 60.78125 6 " fill-opacity="1" fill-rule="nonzero"/></g><g clip-path="url(#c88c87a109)"><path fill="#049eda" d="M 41.90625 62.25 C 41.367188 60.871094 40.664062 59.507812 39.824219 58.164062 C 31.511719 44.785156 10.046875 33.089844 10.046875 33.089844 L 26.164062 22.371094 C 26.761719 23.429688 27.535156 24.609375 28.25 25.953125 C 24.929688 28.28125 20.605469 31.296875 18.78125 33.277344 C 18.78125 33.277344 32.070312 42.101562 39.574219 56.914062 C 40.441406 58.613281 41.238281 60.394531 41.90625 62.25 Z M 41.90625 62.25 " fill-opacity="1" fill-rule="nonzero"/></g><g clip-path="url(#32d073a792)"><path fill="#049eda" d="M 41.910156 62.25 C 41.382812 61.640625 40.800781 61.054688 40.191406 60.496094 C 39.671875 60.023438 39.125 59.554688 38.558594 59.113281 C 26.1875 49.347656 2.015625 45.628906 2.015625 45.628906 L 9.75 35.417969 C 10.515625 35.855469 11.980469 36.589844 13.613281 37.601562 C 11.996094 39.976562 10.972656 41.222656 10.292969 42.835938 C 10.292969 42.835938 25.796875 46.640625 37.894531 58.023438 C 38.613281 58.6875 39.308594 59.382812 39.988281 60.105469 C 40.648438 60.789062 41.292969 61.503906 41.910156 62.25 Z M 41.910156 62.25 " fill-opacity="1" fill-rule="nonzero"/></g><g fill="#ffffff" fill-opacity="1"><g transform="translate(43.269195, 54.166183)"><g><path d="M 3.25 0 L 3.25 -21.5 L 11.40625 -21.5 C 12.726562 -21.5 13.847656 -21.285156 14.765625 -20.859375 C 15.691406 -20.441406 16.382812 -19.84375 16.84375 -19.0625 C 17.3125 -18.289062 17.546875 -17.363281 17.546875 -16.28125 C 17.546875 -15.351562 17.289062 -14.507812 16.78125 -13.75 C 16.28125 -13 15.5625 -12.410156 14.625 -11.984375 L 14.625 -11.671875 C 16.050781 -11.328125 17.132812 -10.6875 17.875 -9.75 C 18.613281 -8.820312 18.984375 -7.648438 18.984375 -6.234375 C 18.984375 -4.234375 18.394531 -2.691406 17.21875 -1.609375 C 16.050781 -0.535156 14.316406 0 12.015625 0 Z M 11.28125 -12.46875 C 12.46875 -12.46875 13.390625 -12.78125 14.046875 -13.40625 C 14.703125 -14.03125 15.03125 -14.882812 15.03125 -15.96875 C 15.03125 -17.125 14.710938 -17.988281 14.078125 -18.5625 C 13.453125 -19.132812 12.519531 -19.421875 11.28125 -19.421875 L 5.78125 -19.421875 L 5.78125 -12.46875 Z M 11.828125 -2.09375 C 14.890625 -2.09375 16.421875 -3.472656 16.421875 -6.234375 C 16.421875 -9.003906 14.890625 -10.390625 11.828125 -10.390625 L 5.78125 -10.390625 L 5.78125 -2.09375 Z M 11.828125 -2.09375 "/></g></g></g><g fill="#ffffff" fill-opacity="1"><g transform="translate(63.961908, 54.166183)"><g><path d="M 8.015625 0.3125 C 6.179688 0.3125 4.816406 -0.171875 3.921875 -1.140625 C 3.023438 -2.117188 2.578125 -3.539062 2.578125 -5.40625 L 2.578125 -16.21875 L 4.96875 -16.21875 L 4.96875 -5.46875 C 4.96875 -3.007812 6.125 -1.78125 8.4375 -1.78125 C 9.914062 -1.78125 11.078125 -2.257812 11.921875 -3.21875 C 12.773438 -4.175781 13.203125 -5.738281 13.203125 -7.90625 L 13.203125 -16.21875 L 15.609375 -16.21875 L 15.609375 0 L 13.34375 0 L 13.34375 -2.546875 L 13.03125 -2.625 C 12.46875 -1.625 11.796875 -0.882812 11.015625 -0.40625 C 10.242188 0.0703125 9.242188 0.3125 8.015625 0.3125 Z M 8.015625 0.3125 "/></g></g></g><g fill="#ffffff" fill-opacity="1"><g transform="translate(82.389747, 54.166183)"><g><path d="M 8.40625 0.3125 C 7.101562 0.3125 5.953125 0 4.953125 -0.625 C 3.960938 -1.25 3.1875 -2.1875 2.625 -3.4375 C 2.0625 -4.695312 1.78125 -6.253906 1.78125 -8.109375 C 1.78125 -9.960938 2.070312 -11.519531 2.65625 -12.78125 C 3.25 -14.039062 4.0625 -14.976562 5.09375 -15.59375 C 6.132812 -16.21875 7.332031 -16.53125 8.6875 -16.53125 C 9.769531 -16.53125 10.742188 -16.328125 11.609375 -15.921875 C 12.472656 -15.515625 13.210938 -14.847656 13.828125 -13.921875 L 14.140625 -13.96875 L 14.140625 -22.734375 L 16.53125 -22.734375 L 16.53125 0 L 14.140625 0 L 14.140625 -2.375 L 13.828125 -2.421875 C 13.296875 -1.617188 12.578125 -0.960938 11.671875 -0.453125 C 10.765625 0.0546875 9.675781 0.3125 8.40625 0.3125 Z M 9.15625 -1.84375 C 10.664062 -1.84375 11.875 -2.359375 12.78125 -3.390625 C 13.6875 -4.421875 14.140625 -5.992188 14.140625 -8.109375 C 14.140625 -10.222656 13.6875 -11.796875 12.78125 -12.828125 C 11.875 -13.867188 10.664062 -14.390625 9.15625 -14.390625 C 7.601562 -14.390625 6.40625 -13.882812 5.5625 -12.875 C 4.71875 -11.863281 4.296875 -10.273438 4.296875 -8.109375 C 4.296875 -3.929688 5.914062 -1.84375 9.15625 -1.84375 Z M 9.15625 -1.84375 "/></g></g></g><g fill="#ffffff" fill-opacity="1"><g transform="translate(101.758832, 54.166183)"><g><path d="M 8.359375 6.890625 C 5.796875 6.890625 3.925781 6.460938 2.75 5.609375 C 1.570312 4.753906 0.984375 3.617188 0.984375 2.203125 C 0.984375 1.296875 1.257812 0.570312 1.8125 0.03125 C 2.363281 -0.507812 3.160156 -0.894531 4.203125 -1.125 L 4.203125 -1.4375 C 3.703125 -1.726562 3.328125 -2.0625 3.078125 -2.4375 C 2.828125 -2.820312 2.703125 -3.28125 2.703125 -3.8125 C 2.703125 -4.4375 2.898438 -4.941406 3.296875 -5.328125 C 3.691406 -5.722656 4.285156 -6.023438 5.078125 -6.234375 L 5.078125 -6.546875 C 3.304688 -7.472656 2.421875 -8.988281 2.421875 -11.09375 C 2.421875 -12.144531 2.660156 -13.082031 3.140625 -13.90625 C 3.628906 -14.738281 4.316406 -15.382812 5.203125 -15.84375 C 6.097656 -16.300781 7.140625 -16.53125 8.328125 -16.53125 C 9.691406 -16.53125 10.828125 -16.234375 11.734375 -15.640625 C 12.078125 -16.015625 12.332031 -16.421875 12.5 -16.859375 C 12.675781 -17.296875 12.789062 -17.789062 12.84375 -18.34375 L 13.15625 -18.53125 L 15.125 -18.0625 C 15.019531 -17.238281 14.769531 -16.539062 14.375 -15.96875 C 13.976562 -15.40625 13.414062 -14.9375 12.6875 -14.5625 L 12.6875 -14.25 C 13.207031 -13.84375 13.59375 -13.359375 13.84375 -12.796875 C 14.09375 -12.242188 14.21875 -11.601562 14.21875 -10.875 C 14.21875 -9.851562 13.972656 -8.9375 13.484375 -8.125 C 12.992188 -7.3125 12.300781 -6.671875 11.40625 -6.203125 C 10.519531 -5.734375 9.492188 -5.5 8.328125 -5.5 C 8.191406 -5.5 7.945312 -5.507812 7.59375 -5.53125 C 7.195312 -5.550781 6.90625 -5.5625 6.71875 -5.5625 C 6.207031 -5.5625 5.800781 -5.425781 5.5 -5.15625 C 5.195312 -4.894531 5.046875 -4.554688 5.046875 -4.140625 C 5.046875 -3.640625 5.207031 -3.265625 5.53125 -3.015625 C 5.863281 -2.773438 6.40625 -2.644531 7.15625 -2.625 L 11 -2.484375 C 12.65625 -2.421875 13.882812 -2.035156 14.6875 -1.328125 C 15.488281 -0.617188 15.890625 0.382812 15.890625 1.6875 C 15.890625 2.65625 15.628906 3.53125 15.109375 4.3125 C 14.585938 5.09375 13.757812 5.71875 12.625 6.1875 C 11.5 6.65625 10.078125 6.890625 8.359375 6.890625 Z M 8.328125 -7.5625 C 9.472656 -7.5625 10.359375 -7.859375 10.984375 -8.453125 C 11.609375 -9.054688 11.921875 -9.894531 11.921875 -10.96875 C 11.921875 -12.09375 11.609375 -12.957031 10.984375 -13.5625 C 10.367188 -14.164062 9.484375 -14.46875 8.328125 -14.46875 C 7.171875 -14.46875 6.285156 -14.164062 5.671875 -13.5625 C 5.066406 -12.96875 4.765625 -12.101562 4.765625 -10.96875 C 4.765625 -9.882812 5.066406 -9.046875 5.671875 -8.453125 C 6.285156 -7.859375 7.171875 -7.5625 8.328125 -7.5625 Z M 8.359375 4.828125 C 9.554688 4.828125 10.53125 4.691406 11.28125 4.421875 C 12.039062 4.160156 12.585938 3.8125 12.921875 3.375 C 13.265625 2.9375 13.4375 2.445312 13.4375 1.90625 C 13.4375 1.425781 13.34375 1.039062 13.15625 0.75 C 12.976562 0.457031 12.6875 0.238281 12.28125 0.09375 C 11.875 -0.0507812 11.328125 -0.144531 10.640625 -0.1875 L 7 -0.375 L 6.484375 -0.375 C 4.453125 -0.34375 3.4375 0.445312 3.4375 2 C 3.4375 3.882812 5.078125 4.828125 8.359375 4.828125 Z M 8.359375 4.828125 "/></g></g></g><g fill="#ffffff" fill-opacity="1"><g transform="translate(118.377713, 54.166183)"><g><path d="M 15.453125 -7.5625 L 4.3125 -7.5625 C 4.375 -5.59375 4.84375 -4.144531 5.71875 -3.21875 C 6.601562 -2.300781 7.8125 -1.84375 9.34375 -1.84375 C 10.5 -1.84375 11.425781 -2.046875 12.125 -2.453125 C 12.832031 -2.867188 13.390625 -3.515625 13.796875 -4.390625 L 14.109375 -4.390625 L 15.671875 -3.46875 C 15.191406 -2.289062 14.4375 -1.363281 13.40625 -0.6875 C 12.375 -0.0195312 11.019531 0.3125 9.34375 0.3125 C 7.769531 0.3125 6.421875 0.00390625 5.296875 -0.609375 C 4.171875 -1.234375 3.300781 -2.171875 2.6875 -3.421875 C 2.082031 -4.679688 1.78125 -6.242188 1.78125 -8.109375 C 1.78125 -9.953125 2.097656 -11.503906 2.734375 -12.765625 C 3.378906 -14.035156 4.257812 -14.976562 5.375 -15.59375 C 6.488281 -16.21875 7.757812 -16.53125 9.1875 -16.53125 C 11.269531 -16.53125 12.894531 -15.941406 14.0625 -14.765625 C 15.226562 -13.597656 15.816406 -11.863281 15.828125 -9.5625 C 15.828125 -8.65625 15.804688 -8.046875 15.765625 -7.734375 Z M 13.453125 -9.5625 C 13.421875 -11.289062 13.039062 -12.546875 12.3125 -13.328125 C 11.582031 -14.109375 10.539062 -14.5 9.1875 -14.5 C 7.769531 -14.5 6.65625 -14.101562 5.84375 -13.3125 C 5.039062 -12.53125 4.550781 -11.28125 4.375 -9.5625 Z M 13.453125 -9.5625 "/></g></g></g><g fill="#ffffff" fill-opacity="1"><g transform="translate(135.673115, 54.166183)"><g><path d="M 10.96875 -2.578125 L 11.734375 -0.859375 C 11.359375 -0.472656 10.859375 -0.179688 10.234375 0.015625 C 9.609375 0.210938 8.929688 0.3125 8.203125 0.3125 C 5.109375 0.3125 3.5625 -1.253906 3.5625 -4.390625 L 3.5625 -14.265625 L 0.734375 -14.265625 L 0.734375 -16.234375 L 3.5625 -16.234375 L 3.5625 -19.671875 L 5.953125 -20.0625 L 5.953125 -16.234375 L 11.171875 -16.234375 L 11.171875 -14.265625 L 5.953125 -14.265625 L 5.953125 -4.640625 C 5.953125 -2.773438 6.765625 -1.84375 8.390625 -1.84375 C 9.265625 -1.84375 10.023438 -2.085938 10.671875 -2.578125 Z M 10.96875 -2.578125 "/></g></g></g></svg>